<?xml version="1.0" encoding="utf-8"?>
<!-- Generator: Adobe Illustrator 23.0.2, SVG Export Plug-In . SVG Version: 6.00 Build 0)  -->
<svg version="1.1" id="Layer_1" xmlns="http://www.w3.org/2000/svg" xmlns:xlink="http://www.w3.org/1999/xlink" x="0px" y="0px"
	 viewBox="0 0 4844.22 1896.76" style="enable-background:new 0 0 4844.22 1896.76;" xml:space="preserve">
<style type="text/css">
	.st0{fill:#FFC000;}
	.st1{fill:#FFFFFF;}
	.st2{fill:#353535;}
</style>
<g>
	<circle class="st0" cx="990.13" cy="949.63" r="671.53"/>
	<path class="st1" d="M1303.42,617.52l-259.29,664.08H955.5c0,0-64.68,8.37-106.59-105.39C807,1062.44,625.55,620.53,625.55,620.53
		h169.47l171.85,479.24l129.74-348.93H986.85c0,0,16.36-133.33,116.18-133.33C1202.8,617.52,1303.42,617.52,1303.42,617.52z"/>
	<path class="st1" d="M1338.37,1210.13c0,40.47-32.81,73.28-73.27,73.28c-40.47,0-73.25-32.81-73.25-73.28
		c0-40.44,32.78-73.24,73.25-73.24C1305.56,1136.89,1338.37,1169.69,1338.37,1210.13z"/>
</g>
<g>
	<path class="st2" d="M2813.58,1110.75h-269.37l-61.27,153.33h-130.99l263.03-646.55l0,0c77.04,0,146.17,45.1,174,113.52
		l216.85,533.03h0c-78.45,0-148.32-43.37-174.19-108.12L2813.58,1110.75z M2771.33,1007.3l-91.9-230.91l-92.96,230.91H2771.33z"/>
	<path class="st2" d="M3664.05,617.52L3664.05,617.52c74.68,0,135.21,52.93,135.21,118.23v528.32l0,0
		c-74.68,0-135.21-57.66-135.21-128.79V617.52z"/>
	<path class="st2" d="M4333.36,1110.75h-269.37l-61.27,153.33h-130.99l263.03-646.55h0c77.04,0,146.17,45.1,174,113.52
		l216.85,533.03h0c-78.45,0-148.32-43.37-174.19-108.12L4333.36,1110.75z M4291.1,1007.3l-91.9-230.91l-92.96,230.91H4291.1z"/>
	<path class="st2" d="M2449.25,618.53l-251.6,644.4h-86.01c0,0-62.76,8.12-103.43-102.27c-40.67-110.4-216.74-539.21-216.74-539.21
		h164.45l166.75,465.04l125.89-338.58h-106.51c0,0,15.88-129.37,112.73-129.37C2351.62,618.53,2449.25,618.53,2449.25,618.53z"/>
</g>
<path class="st2" d="M3440.29,992.52c36.39-17.23,64.48-40.18,84.27-68.81c19.78-28.63,29.69-65.42,29.69-110.38
	c0-64.65-20.59-113.45-61.77-146.4c-41.18-32.93-85.53-49.42-157.02-49.42h-80.75c-104.05,0-176.4,81.36-176.4,181.72v464.83h122.58
	v-240.15h119.71h4.79l95.22,176.88c20.93,38.87,62.56,63.27,107.97,63.27h63.03L3440.29,992.52z M3439.31,832.98
	c0,49.71-43.29,90-93,90h-146.15v-132.2c0-44.18,35.82-80,80-80h66.15c49.71,0,93,40.29,93,90V832.98z"/>
</svg>
